<mxfile host="65bd71144e" modified="2023-03-11T14:22:33.626Z" agent="5.0 (Macintosh; Intel Mac OS X 12_4_0) AppleWebKit/537.36 (KHTML, like Gecko) Code/1.74.0 Chrome/102.0.5005.167 Electron/19.1.8 Safari/537.36" version="21.0.2" etag="X7Z5JRNiwQPjaYEpuPym" type="embed">
    <diagram id="F-IAaqHEWzQ9n9zZECw0" name="Page-1">
        <mxGraphModel dx="991" dy="765" grid="1" gridSize="10" guides="1" tooltips="1" connect="1" arrows="1" fold="1" page="1" pageScale="1" pageWidth="827" pageHeight="1169" math="0" shadow="0">
            <root>
                <mxCell id="0"/>
                <mxCell id="1" parent="0"/>
                <mxCell id="4" value="Block-Header" style="rounded=0;whiteSpace=wrap;html=1;fillColor=none;verticalAlign=top;" vertex="1" parent="1">
                    <mxGeometry x="120" y="200" width="510" height="140" as="geometry"/>
                </mxCell>
                <mxCell id="5" value="Block Version" style="rounded=0;whiteSpace=wrap;html=1;fillColor=none;" vertex="1" parent="1">
                    <mxGeometry x="140" y="230" width="70" height="90" as="geometry"/>
                </mxCell>
                <mxCell id="6" value="Merkle Tree Root Hash" style="rounded=0;whiteSpace=wrap;html=1;fillColor=none;" vertex="1" parent="1">
                    <mxGeometry x="220" y="230" width="70" height="90" as="geometry"/>
                </mxCell>
                <mxCell id="7" value="Timestamp" style="rounded=0;whiteSpace=wrap;html=1;fillColor=none;" vertex="1" parent="1">
                    <mxGeometry x="300" y="230" width="70" height="90" as="geometry"/>
                </mxCell>
                <mxCell id="8" value="nBits" style="rounded=0;whiteSpace=wrap;html=1;fillColor=none;" vertex="1" parent="1">
                    <mxGeometry x="380" y="230" width="70" height="90" as="geometry"/>
                </mxCell>
                <mxCell id="9" value="Nonce" style="rounded=0;whiteSpace=wrap;html=1;fillColor=none;strokeColor=#ff0000;" vertex="1" parent="1">
                    <mxGeometry x="460" y="230" width="70" height="90" as="geometry"/>
                </mxCell>
                <mxCell id="10" value="Parent Block Hash" style="rounded=0;whiteSpace=wrap;html=1;fillColor=none;" vertex="1" parent="1">
                    <mxGeometry x="540" y="230" width="70" height="90" as="geometry"/>
                </mxCell>
                <mxCell id="11" value="" style="rounded=0;whiteSpace=wrap;html=1;fillColor=none;verticalAlign=top;" vertex="1" parent="1">
                    <mxGeometry x="120" y="360" width="510" height="140" as="geometry"/>
                </mxCell>
                <mxCell id="12" value="Transaction Counter" style="rounded=0;whiteSpace=wrap;html=1;fillColor=none;" vertex="1" parent="1">
                    <mxGeometry x="140" y="370" width="470" height="40" as="geometry"/>
                </mxCell>
                <mxCell id="13" value="TX" style="rounded=0;whiteSpace=wrap;html=1;fillColor=none;" vertex="1" parent="1">
                    <mxGeometry x="140" y="420" width="50" height="60" as="geometry"/>
                </mxCell>
                <mxCell id="14" value="TX" style="rounded=0;whiteSpace=wrap;html=1;fillColor=none;" vertex="1" parent="1">
                    <mxGeometry x="200" y="420" width="50" height="60" as="geometry"/>
                </mxCell>
                <mxCell id="15" value="TX" style="rounded=0;whiteSpace=wrap;html=1;fillColor=none;" vertex="1" parent="1">
                    <mxGeometry x="260" y="420" width="50" height="60" as="geometry"/>
                </mxCell>
                <mxCell id="16" value="TX" style="rounded=0;whiteSpace=wrap;html=1;fillColor=none;" vertex="1" parent="1">
                    <mxGeometry x="320" y="420" width="50" height="60" as="geometry"/>
                </mxCell>
                <mxCell id="17" value="TX" style="rounded=0;whiteSpace=wrap;html=1;fillColor=none;" vertex="1" parent="1">
                    <mxGeometry x="380" y="420" width="50" height="60" as="geometry"/>
                </mxCell>
                <mxCell id="18" value="TX" style="rounded=0;whiteSpace=wrap;html=1;fillColor=none;" vertex="1" parent="1">
                    <mxGeometry x="440" y="420" width="50" height="60" as="geometry"/>
                </mxCell>
                <mxCell id="19" value="TX" style="rounded=0;whiteSpace=wrap;html=1;fillColor=none;" vertex="1" parent="1">
                    <mxGeometry x="500" y="420" width="50" height="60" as="geometry"/>
                </mxCell>
                <mxCell id="20" value="TX" style="rounded=0;whiteSpace=wrap;html=1;fillColor=none;" vertex="1" parent="1">
                    <mxGeometry x="560" y="420" width="50" height="60" as="geometry"/>
                </mxCell>
                <mxCell id="22" value="" style="rounded=0;whiteSpace=wrap;html=1;fillColor=none;verticalAlign=bottom;labelPosition=center;verticalLabelPosition=top;align=center;" vertex="1" parent="1">
                    <mxGeometry x="95" y="180" width="560" height="340" as="geometry"/>
                </mxCell>
            </root>
        </mxGraphModel>
    </diagram>
</mxfile>